<?xml version="1.0" encoding="iso-8859-1"?>
<!-- Generator: Adobe Illustrator 19.0.0, SVG Export Plug-In . SVG Version: 6.00 Build 0)  -->
<svg version="1.1" id="Capa_1" xmlns="http://www.w3.org/2000/svg" xmlns:xlink="http://www.w3.org/1999/xlink" x="0px" y="0px"
	 viewBox="0 0 512 512" style="enable-background:new 0 0 512 512;" xml:space="preserve">
<g>
	<g>
		<g>
			<rect x="176.5" y="257" width="200" height="40"/>
			<path d="M176.5,217h200V97h-200V217z M216.5,137h120v40h-120V137z"/>
			<path d="M431.5,0h-311c-33.084,0-60,26.916-60,60v37h-40v40h40v100h-40v40h40v100h-40v40h40v35c0,33.084,26.916,60,60,60h311
				c33.084,0,60-26.916,60-60V60C491.5,26.916,464.584,0,431.5,0z M451.5,452c0,11.028-8.972,20-20,20h-311
				c-11.028,0-20-8.972-20-20v-35h9v-0.051c0.333,0.017,0.662,0.051,1,0.051c11.046,0,20-8.954,20-20c0-11.046-8.954-20-20-20
				c-0.338,0-0.667,0.034-1,0.051V377h-9V277h9v-0.051c0.333,0.017,0.662,0.051,1,0.051c11.046,0,20-8.954,20-20
				c0-11.046-8.954-20-20-20c-0.338,0-0.667,0.034-1,0.051V237h-9V137h9v-0.051c0.333,0.017,0.662,0.051,1,0.051
				c11.046,0,20-8.954,20-20s-8.954-20-20-20c-0.338,0-0.667,0.034-1,0.051V97h-9V60c0-11.028,8.972-20,20-20h311
				c11.028,0,20,8.972,20,20V452z"/>
		</g>
	</g>
</g>
<g>
</g>
<g>
</g>
<g>
</g>
<g>
</g>
<g>
</g>
<g>
</g>
<g>
</g>
<g>
</g>
<g>
</g>
<g>
</g>
<g>
</g>
<g>
</g>
<g>
</g>
<g>
</g>
<g>
</g>
</svg>
