<svg xmlns="http://www.w3.org/2000/svg" width="10.978" height="10.978" viewBox="0 0 10.978 10.978"><g transform="translate(-33.5 -33.5)"><g transform="translate(33.5 33.5)"><path d="M43.736,33.5H34.225a.725.725,0,0,0,0,1.45h9.528a.717.717,0,0,0,.725-.725A.743.743,0,0,0,43.736,33.5Z" transform="translate(-33.5 -33.5)" fill="currentColor"/><path d="M43.736,87.4H34.225a.725.725,0,1,0,0,1.45h9.528a.717.717,0,0,0,.725-.725A.743.743,0,0,0,43.736,87.4Z" transform="translate(-33.5 -77.872)" fill="currentColor"/><path d="M43.736,60.4H34.225a.725.725,0,0,0,0,1.45h9.528a.717.717,0,0,0,.725-.725A.743.743,0,0,0,43.736,60.4Z" transform="translate(-33.5 -55.645)" fill="currentColor"/></g></g></svg>
