<svg xmlns="http://www.w3.org/2000/svg" width="13.125" height="14" viewBox="0 0 13.125 14"><g transform="translate(-16)"><g transform="translate(19.062)"><path d="M134.959,6.381a.436.436,0,0,0-.4-.256h-1.75V.438A.438.438,0,0,0,132.373,0h-1.75a.438.438,0,0,0-.437.438V6.125h-1.75a.437.437,0,0,0-.329.725l3.063,3.5a.437.437,0,0,0,.658,0l3.063-3.5A.436.436,0,0,0,134.959,6.381Z" transform="translate(-127.998)" fill="#fff"/></g><g transform="translate(16 9.625)"><path d="M27.375,352v2.625H17.75V352H16v3.5a.875.875,0,0,0,.875.875H28.25a.874.874,0,0,0,.875-.875V352Z" transform="translate(-16 -352)" fill="#fff"/></g></g></svg>