<svg xmlns="http://www.w3.org/2000/svg" width="18.162" height="19.972" viewBox="0 0 18.162 19.972"><path d="M13.177,5.9c2.425,0,2.71.012,3.668.059a4.565,4.565,0,0,1,1.686.345,2.806,2.806,0,0,1,1.045.745A3.1,3.1,0,0,1,20.255,8.2a6.037,6.037,0,0,1,.314,1.855c.043,1.054.054,1.367.054,4.035s-.011,2.981-.054,4.035a5.926,5.926,0,0,1-.314,1.855,3.146,3.146,0,0,1-.677,1.149,2.762,2.762,0,0,1-1.045.745,4.651,4.651,0,0,1-1.686.345c-.959.048-1.243.059-3.668.059s-2.71-.012-3.668-.059a4.565,4.565,0,0,1-1.686-.345,2.806,2.806,0,0,1-1.045-.745A3.1,3.1,0,0,1,6.1,19.978a6.037,6.037,0,0,1-.314-1.855c-.043-1.054-.054-1.367-.054-4.035s.011-2.981.054-4.035A5.926,5.926,0,0,1,6.1,8.2a3.146,3.146,0,0,1,.677-1.149A2.762,2.762,0,0,1,7.823,6.3a4.651,4.651,0,0,1,1.686-.345c.959-.052,1.243-.059,3.668-.059m0-1.8c-2.465,0-2.775.012-3.744.059a6.13,6.13,0,0,0-2.2.464A4.408,4.408,0,0,0,5.624,5.777,5.027,5.027,0,0,0,4.576,7.544,7.966,7.966,0,0,0,4.154,9.97c-.043,1.062-.054,1.4-.054,4.114s.011,3.052.054,4.118a8.013,8.013,0,0,0,.422,2.426A4.94,4.94,0,0,0,5.624,22.4a4.485,4.485,0,0,0,1.607,1.153,6.134,6.134,0,0,0,2.205.464c.969.048,1.276.059,3.744.059s2.775-.012,3.744-.059a6.17,6.17,0,0,0,2.205-.464A4.408,4.408,0,0,0,20.738,22.4a5.027,5.027,0,0,0,1.049-1.768,7.966,7.966,0,0,0,.422-2.426c.043-1.066.054-1.4.054-4.118s-.011-3.052-.054-4.118a8.014,8.014,0,0,0-.422-2.426,4.94,4.94,0,0,0-1.049-1.768,4.485,4.485,0,0,0-1.607-1.153,6.134,6.134,0,0,0-2.205-.464c-.973-.044-1.283-.055-3.748-.055Z" transform="translate(-4.1 -4.1)" fill="#fff"/><path d="M131.263,126.6a4.663,4.663,0,1,0,4.663,4.663A4.664,4.664,0,0,0,131.263,126.6Zm0,7.69a3.027,3.027,0,1,1,3.027-3.027A3.027,3.027,0,0,1,131.263,134.29Z" transform="translate(-122.186 -120.777)" fill="#fff"/><ellipse cx="1.088" cy="1.088" rx="1.088" ry="1.088" transform="translate(12.836 3.142)" fill="#fff"/></svg>