<svg xmlns="http://www.w3.org/2000/svg" width="16" height="16" viewBox="0 0 16 16"><g opacity="0.89"><path d="M11,0H5A5,5,0,0,0,0,5v6a5,5,0,0,0,5,5h6a5,5,0,0,0,5-5V5A5,5,0,0,0,11,0Zm3.5,11A3.5,3.5,0,0,1,11,14.5H5A3.5,3.5,0,0,1,1.5,11V5A3.5,3.5,0,0,1,5,1.5h6A3.5,3.5,0,0,1,14.5,5Z" fill="#fff"/><g transform="translate(4 4)"><path d="M132,128a4,4,0,1,0,4,4A4,4,0,0,0,132,128Zm0,6.5a2.5,2.5,0,1,1,2.5-2.5A2.5,2.5,0,0,1,132,134.5Z" transform="translate(-128 -128)" fill="#fff"/></g><g transform="translate(11.767 3.167)"><circle cx="0.533" cy="0.533" r="0.533" fill="#fff"/></g></g></svg>