<svg xmlns="http://www.w3.org/2000/svg" width="18.412" height="26.373" viewBox="0 0 18.412 26.373"><g transform="translate(-0.001)"><path d="M164.178,339.436c-.788-1.012-1.572-1.98-2.309-2.981a50.23,50.23,0,0,1-5.289-8.834,17.317,17.317,0,0,1-1.476-4.537,8.088,8.088,0,0,1,1.484-6.133,9.328,9.328,0,0,1,16.736,3.657,9.664,9.664,0,0,1-.516,4.545,31.711,31.711,0,0,1-2.729,5.877,54.443,54.443,0,0,1-5.689,8.166C164.342,339.256,164.286,339.315,164.178,339.436Zm6.45-17.556a6.426,6.426,0,1,0-6.426,6.17A6.294,6.294,0,0,0,170.627,321.879Z" transform="translate(-155.001 -313.062)" fill="#243d4c"/><path d="M160.659,322.758a4.289,4.289,0,1,1,4.457-4.3A4.387,4.387,0,0,1,160.659,322.758Z" transform="translate(-151.447 -309.684)" fill="#243d4c"/></g></svg>