<svg xmlns="http://www.w3.org/2000/svg" width="26" height="26" viewBox="0 0 26 26"><path d="M0,0H26V26H0Z" fill="none" fill-rule="evenodd"/><path d="M11.8,11.778c-2.27-.656-3-1.333-3-2.389,0-1.211,1.01-2.056,2.7-2.056A2.186,2.186,0,0,1,14,9.667h2.21A4.337,4.337,0,0,0,13,5.433V3H10V5.4A4.164,4.164,0,0,0,6.5,9.411c0,2.567,1.91,3.844,4.7,4.589,2.5.667,3,1.644,3,2.678,0,.767-.49,1.989-2.7,1.989-2.06,0-2.87-1.022-2.98-2.333H6.32A4.466,4.466,0,0,0,10,20.589V23h3V20.611c1.95-.411,3.5-1.667,3.5-3.944C16.5,13.511,14.07,12.433,11.8,11.778Z" transform="translate(0.915 0)" fill="#1d1d1d" fill-rule="evenodd"/></svg>