<svg xmlns="http://www.w3.org/2000/svg" width="16.738" height="24.306" viewBox="0 0 16.738 24.306"><g transform="translate(-31.62)"><path d="M46.264,8.765h-.4V5.878a5.879,5.879,0,0,0-11.757,0V8.765h-.4a2.1,2.1,0,0,0-2.094,2.094V22.212a2.1,2.1,0,0,0,2.094,2.094H46.264a2.1,2.1,0,0,0,2.094-2.094V10.859A2.1,2.1,0,0,0,46.264,8.765ZM35.906,5.878a4.083,4.083,0,0,1,8.167,0V8.765H35.906ZM46.563,22.212a.3.3,0,0,1-.3.3H33.714a.3.3,0,0,1-.3-.3V10.859a.3.3,0,0,1,.3-.3H46.264a.3.3,0,0,1,.3.3Z" fill="#000000"/><path d="M94.945,116.309a.9.9,0,0,0-.9.9v3.437a.9.9,0,1,0,1.8,0v-3.437A.9.9,0,0,0,94.945,116.309Z" transform="translate(-54.956 -102.389)" fill="#000000"/></g></svg>