<svg xmlns="http://www.w3.org/2000/svg" width="21.543" height="21.549" viewBox="0 0 21.543 21.549"><g transform="translate(-0.001)"><path d="M175.333,248.275a5.2,5.2,0,0,1-.479,1.946,2.942,2.942,0,0,1-1.3,1.3,7.04,7.04,0,0,1-3.232,1.062,7.438,7.438,0,0,1-2.744-.5,19.034,19.034,0,0,1-5.546-2.8,21.631,21.631,0,0,1-6.764-8.026,16.734,16.734,0,0,1-1.4-4.107,5.435,5.435,0,0,1,.325-2.907,6.273,6.273,0,0,1,1.286-2.219,4,4,0,0,1,2.256-.945,1.206,1.206,0,0,1,1.479.724c.439.862.942,1.688,1.421,2.529.252.436.516.866.773,1.3a.859.859,0,0,1-.107,1.228c-.384.4-.826.743-1.237,1.117q-.52.483-1.022.979a.579.579,0,0,0-.132.645,3.311,3.311,0,0,0,.2.494,17.281,17.281,0,0,0,3.683,4.813,19.373,19.373,0,0,0,3.579,2.406c.617.331.887.273,1.36-.242s.927-1.062,1.4-1.587c.786-.875,1.04-.881,2.038-.267.939.58,1.915,1.1,2.87,1.648.319.184.626.39.945.571C175.262,247.6,175.354,247.843,175.333,248.275Z" transform="translate(-153.793 -231.035)" fill="#243d4c"/></g></svg>