<svg xmlns="http://www.w3.org/2000/svg" width="16.052" height="20.091" viewBox="0 0 16.052 20.091"><path d="M10.984,12.649a.844.844,0,0,1,.024.1c.284,1.615,1.028,2.29,2.453,2.29,2.271,0,4.585-2.819,4.585-5.759,0-3.063-2.467-5.277-6.465-5.277A5.313,5.313,0,0,0,6.006,9.284a3.574,3.574,0,0,0,.754,2.646A1,1,0,1,1,5.4,13.4,5.375,5.375,0,0,1,4,9.284,7.3,7.3,0,0,1,11.58,2c5.06,0,8.471,3.061,8.471,7.284,0,3.969-3.114,7.765-6.591,7.765a4.2,4.2,0,0,1-3.2-1.259l-1.269,5.5a1,1,0,1,1-1.954-.451l3.01-13.042A1,1,0,0,1,12,8.245Z" transform="translate(-4 -2)" fill="#fff"/></svg>