<svg xmlns="http://www.w3.org/2000/svg" xmlns:xlink="http://www.w3.org/1999/xlink" width="1699.269" height="504.646" viewBox="0 0 1699.269 504.646"><defs><clipPath id="a"><circle cx="31.496" cy="31.496" r="31.496" fill="none"/></clipPath></defs><g transform="translate(-20.003 -196.924)"><g transform="translate(495.533 340.855)"><g transform="translate(13.256)"><path d="M393.276,276.3s21.358-1.95,41.6-10.24c.64-.262,1.029,4.087,1.029,4.087s2.979-5.816,4.015-6.3c10.954-5.165,21-12.365,26.385-22.332,0,0,2.653,61.113-75.906,74.686Z" transform="translate(-390.396 -241.508)" fill="#5084da"/></g><g transform="translate(5.481 104.504)"><path d="M421.093,323.284s25.927,13.743,76.626,16.131c0,0-34.491,31.475-113.407,20.64l2.588-35.849Z" transform="translate(-384.312 -323.284)" fill="#5084da"/></g><g transform="translate(5.991 46.459)"><path d="M384.711,301.017s11.7-7.476,30.7-13.932c.757-.257,2.359,4.221,2.359,4.221s2.6-5.832,3.967-6.243c22.694-6.8,53.748-11.233,87.194-1.793,0,0-10.133,14.116-30.872,29.569-.884.658-6.742.138-6.742.138s2.46,2.964,1.652,3.526A198.618,198.618,0,0,1,388.827,349.7Z" transform="translate(-384.711 -277.863)" fill="#5193f4"/></g><g transform="translate(0 51.866)" opacity="0.4"><path d="M510.236,282.094a291.267,291.267,0,0,1-30.528,16.913c-10.466,5.113-21.226,9.607-32.123,13.725-5.439,2.089-11,3.832-16.517,5.7l-8.37,2.507c-1.4.41-2.786.85-4.19,1.234l-4.238,1.063a285.345,285.345,0,0,1-34.246,6.735l8.542-1.761,4.27-.861c1.419-.314,2.823-.688,4.235-1.027l8.47-2.019,8.39-2.322c5.608-1.493,11.115-3.333,16.667-5.013,5.477-1.912,11-3.7,16.4-5.822,10.9-3.969,21.61-8.469,32.159-13.312q7.921-3.619,15.694-7.554Q502.641,286.386,510.236,282.094Z" transform="translate(-380.023 -282.094)" fill="#5084da"/><g transform="translate(59.291 6.512)"><path d="M426.419,313.444c2.166-2.023,4.263-4.083,6.36-6.13,2.077-2.069,4.126-4.152,6.1-6.307,1.992-2.135,3.854-4.377,5.691-6.647,1.793-2.3,3.486-4.681,5.107-7.17a38.552,38.552,0,0,1-4.036,7.942,58.861,58.861,0,0,1-5.517,7.017A62.476,62.476,0,0,1,426.419,313.444Z" transform="translate(-426.419 -287.19)" fill="#5084da"/></g><g transform="translate(27.892 17.06)"><path d="M401.849,320.571a56.212,56.212,0,0,0,6.546-5.1,51.482,51.482,0,0,0,5.67-5.923,48.571,48.571,0,0,0,4.705-6.7,71.737,71.737,0,0,0,3.762-7.4,31.248,31.248,0,0,1-2.6,8.023,33.57,33.57,0,0,1-4.567,7.16,34.9,34.9,0,0,1-6.14,5.862A28.057,28.057,0,0,1,401.849,320.571Z" transform="translate(-401.849 -295.444)" fill="#5084da"/></g><g transform="translate(59.291 31.005)"><path d="M426.419,308.117a108.82,108.82,0,0,0,12.018-.061c1.983-.1,3.954-.336,5.923-.622,1.982-.256,3.921-.713,5.947-1.077a22.669,22.669,0,0,1-5.674,2.368,29.334,29.334,0,0,1-6.087,1.018,32.632,32.632,0,0,1-6.16-.176A23.99,23.99,0,0,1,426.419,308.117Z" transform="translate(-426.419 -306.356)" fill="#5084da"/></g><g transform="translate(28.528 42.233)"><path d="M402.347,315.142c2.441.293,4.861.526,7.268.776,2.41.22,4.813.422,7.216.525,2.4.12,4.8.106,7.208.042a72.1,72.1,0,0,0,7.233-.722,26.718,26.718,0,0,1-7.109,2.037,42.487,42.487,0,0,1-7.407.332A45.369,45.369,0,0,1,402.347,315.142Z" transform="translate(-402.347 -315.142)" fill="#5084da"/></g></g><g transform="translate(21.937 15.881)" opacity="0.228"><path d="M456.343,253.935a45.448,45.448,0,0,1-9.963,15.232,66.09,66.09,0,0,1-14.446,11.287l-4.052,2.167c-1.346.735-2.787,1.265-4.181,1.894a75.425,75.425,0,0,1-8.616,3.121c-1.436.519-2.944.795-4.422,1.168l-4.445,1.057c-3.011.472-6.022.912-9.03,1.289,2.949-.757,5.916-1.356,8.843-2.1l4.348-1.278a45.086,45.086,0,0,0,4.305-1.375c2.8-1.105,5.684-1.994,8.373-3.351,1.352-.651,2.772-1.166,4.079-1.9l3.951-2.155a76.722,76.722,0,0,0,14.372-10.736,44.245,44.245,0,0,0,3.135-3.231c.5-.565,1.013-1.112,1.491-1.692l1.393-1.774A43.805,43.805,0,0,0,456.343,253.935Z" transform="translate(-397.189 -253.935)" fill="#605aca" opacity="0.5"/></g><g transform="translate(17.44 115.387)"><path d="M478.556,341.364c-3.553.682-7.147,1.1-10.741,1.526q-5.4.523-10.829.794a185.18,185.18,0,0,1-21.731-.308c-3.614-.305-7.222-.721-10.806-1.3a98.322,98.322,0,0,1-10.676-2.143,73.968,73.968,0,0,1-20.1-8.135,79.111,79.111,0,0,0,10.019,4.031,97.2,97.2,0,0,0,10.387,2.84,151.664,151.664,0,0,0,21.313,3.021c7.16.633,14.361.772,21.56.7S471.357,341.981,478.556,341.364Z" transform="translate(-393.67 -331.8)" fill="#4ca1ff"/><g transform="translate(27.654 9.021)"><path d="M438.561,352.069a27.15,27.15,0,0,1-13.877-2.744,21.393,21.393,0,0,1-5.8-4.3,16.2,16.2,0,0,1-3.573-6.169,26.6,26.6,0,0,0,4.493,5.222,28.724,28.724,0,0,0,5.641,3.735,44.023,44.023,0,0,0,6.358,2.528A67.6,67.6,0,0,0,438.561,352.069Z" transform="translate(-415.31 -338.859)" fill="#4ca1ff"/></g><g transform="translate(12.166 5.424)"><path d="M423.029,353.975a27.151,27.151,0,0,1-12.954-5.683,21.4,21.4,0,0,1-4.732-5.452,16.206,16.206,0,0,1-2.152-6.8,26.673,26.673,0,0,0,3.255,6.071,28.76,28.76,0,0,0,4.7,4.868,43.921,43.921,0,0,0,5.66,3.844A67.079,67.079,0,0,0,423.029,353.975Z" transform="translate(-403.19 -336.044)" fill="#4ca1ff"/></g></g></g><g transform="translate(247.563 461.666)"><path d="M276.2,405.639a42.164,42.164,0,0,0-31.929-14.318c-8.889.116-17.616,3.071-26.485,2.526a33.859,33.859,0,0,1-31.466-38.674c1.027-7.027,4.7-14.082,11.067-17.228a21.372,21.372,0,0,1,11.329-1.79,31.876,31.876,0,0,1,10.175,2.722c7.358,3.266,13.758,9.021,18.874,15.376,4.644,5.78,15.251,14.281,22.421,19.77,4.2,3.2,7.236,5.374,7.236,5.374C272.478,384.07,272.743,399.684,276.2,405.639Z" transform="translate(-185.983 -336.044)" fill="#52d2bc"/><path d="M195.637,352.979c22.338,6.363,47.013,15.38,64.454,30.719" transform="translate(-183.3 -331.337)" fill="none" stroke="#00ad9f" stroke-linecap="round" stroke-linejoin="round" stroke-width="1"/></g><g transform="translate(348.094 463.219)"><path d="M320.416,354.2a28.264,28.264,0,0,1-2.892,10.878,24.487,24.487,0,0,1-4.836,6.163,37.183,37.183,0,0,1-3.1,2.625,45.173,45.173,0,0,1-13.56,7.113c-6.985,2.222-14.465,2.635-20.884,6.572a25.4,25.4,0,0,0-10.469,13.113l-.027-6.255c.684-6.928,1.385-13.982,3.967-20.6a58.748,58.748,0,0,1,6.7-12.082,83.722,83.722,0,0,1,14.617-16.434c4.51-3.8,9.674-7.034,15.188-7.855s11.365,1.213,13.889,6.065C320.634,346.62,320.751,350.482,320.416,354.2Z" transform="translate(-264.65 -337.259)" fill="#5193f4"/><path d="M267.684,387.209a51.9,51.9,0,0,1,18.989-22.921c5.158-3.387,10.81-5.7,16.075-8.873s10.335-7.487,12.8-13.271" transform="translate(-263.807 -335.902)" fill="none" stroke="#0b43a4" stroke-linecap="round" stroke-linejoin="round" stroke-width="1" opacity="0.31"/></g><g transform="translate(334.694 503.011)"><path d="M262.846,385.607c9.826-9.749,23.764-14.216,37.466-16.181,11.427-1.638,23.431-1.7,34.121,2.663,3.348,1.366,6.652,3.266,8.632,6.293s2.261,7.4-.158,10.084c-2.04,2.268-5.354,2.82-8.4,2.93-10.038.362-19.856-2.557-29.686-4.617-16.9-3.541-35.294-4.4-50.653,3.485" transform="translate(-254.164 -368.397)" fill="#52d2bc"/><path d="M270.545,378.981c20.337-8.576,49.711-5.813,62.524,3.052" transform="translate(-249.611 -366.899)" fill="none" stroke="#00ad9f" stroke-linecap="round" stroke-linejoin="round" stroke-width="1"/></g><g transform="translate(20.003 388.392)"><path d="M102.991,305.656c-9.19-4.415-13.593-16.181-21.145-18.71-9.357-3.234-11.981,7.219-27.11,4.634-12.7-2.169-16.557-16.45-37.783-12.03-6.482,1.348-10.784,6.828-8.35,13.4,1.821,6.54,10.827,10.678,16.186,14.018,4.753,2.684,8.961,4.123,11.777,9.113.029.052.059.109.084.162,1.894,4.056,1.137,7.673,5.564,10.64,10.368,7.585,23.28-4.459,35.074-4.106,8.318.249,8.085,8.887,18.087,11.386,9.905,2.477,6.655-6.39,27.435,1.663a1.45,1.45,0,0,0,1.876-.832h0a1.451,1.451,0,0,0-.305-1.519C109.837,318.251,116.518,312.156,102.991,305.656Z" transform="translate(-7.913 -278.706)" fill="#4a84d8"/><path d="M102.991,305.656c-9.19-4.415-13.593-16.181-21.145-18.71-9.357-3.234-11.981,7.219-27.11,4.634-12.7-2.169-16.557-16.45-37.783-12.03-6.482,1.348-10.784,6.828-8.35,13.4,1.821,6.54,10.827,10.678,16.186,14.018,4.753,2.684,8.961,4.123,11.777,9.113.029.052.059.109.084.162,1.894,4.056,1.137,7.673,5.564,10.64,10.368,7.585,23.28-4.459,35.074-4.106,8.318.249,8.085,8.887,18.087,11.386,9.905,2.477,6.655-6.39,27.435,1.663a1.45,1.45,0,0,0,1.876-.832h0a1.451,1.451,0,0,0-.305-1.519C109.837,318.251,116.518,312.156,102.991,305.656Z" transform="translate(-7.913 -278.706)" fill="#00ad9f"/><path d="M112.152,324.013c-4.847-2.35-8.443-6.6-12.365-10.289s-8.75-7.071-14.135-6.925c-3.3.089-6.6,1.514-9.827.781-4.25-.966-7.151-5.434-11.472-6.011-2.415-.322-4.805.653-7.236.814-6.943.457-12.37-5.457-18.056-9.467a37.427,37.427,0,0,0-22.042-6.779" transform="translate(-5.383 -276.642)" fill="none" stroke="#4ca1ff" stroke-miterlimit="10" stroke-width="1" opacity="0.5"/></g><g transform="translate(65.074 467.412)"><path d="M182.65,350.26c-30.233,3.2-35.07,5.806-42.319,2.673-9.237-3.994-18.945-3-28.256-6.819s-19.423-6.732-29.357-5.119c-3.14.51-6.625,1.785-7.063,5.47a6.043,6.043,0,0,0,1.167,4.181c2.188,3.052,5.763,4.077,9.182,5.018l11.43,3.153c3.716,1.025,3.48,6.5-.337,7.049l-.1.013a27.582,27.582,0,0,1-9.6-.9c-6.864-1.521-13.74-3.369-20.77-3.378-8.507-.012-17.526,3.059-21.734,10.991a14.6,14.6,0,0,0-1.521,9.219c1.482,8.773,9.688,11.7,16.961,11.045,5.117-.463,9.954-2.44,14.786-4.188,11.8-4.27,21.9.44,34.445.765C144.193,390.337,182.65,350.26,182.65,350.26Z" transform="translate(-43.182 -340.541)" fill="#7ee8d4"/><path d="M50.689,375.575c21.527-2.459,43.211-4.949,63.865-11.5,6.059-1.919,13.862-2.451,30.962-15.071" transform="translate(-41.095 -338.188)" fill="none" stroke="#00ad9f" stroke-linecap="round" stroke-linejoin="round" stroke-width="1"/></g><g transform="translate(68.547 279.116)"><path d="M86.89,294.036a12.131,12.131,0,0,0,2.25,1.4c3.694,1.821,7.926,2.074,10.865,5.389,1.962,2.087,3.026,4.884,4.492,7.367a13.355,13.355,0,0,0,1.006,1.573c4.544,6.232,9.016,6.956,13.8,6.848,1.963-.046,3.994-.234,6.082-.233a20.228,20.228,0,0,1,10.259,2.422,27.964,27.964,0,0,1,7.283,5.926,1.523,1.523,0,0,0,1.932.126,1.648,1.648,0,0,0,.751-1.674,23.076,23.076,0,0,0-6.793-12.367c-8.469-8.013-20.97-8.649-21.727-25.192-.16-3.544.593-6.056.027-8.581a8.907,8.907,0,0,0-2.166-3.968c-2.561-2.76-6.243-3.981-9.523-6.186-8.882-6.335-4.649-16.7-5.438-26.564-.528-8.052-7.767-13.293-13.688-17.851-7.4-5.447-7.384-15.27-12.378-22.571s-17.394-10.25-24-.432c-7.011,9.8-3.16,22.055-1.145,31.994a23.09,23.09,0,0,0,2.654,7.007c3.693,6.452,10.036,11.048,15.514,16.513a39.235,39.235,0,0,1,8.157,11.449,33.735,33.735,0,0,1,2.532,8.02c.119.663.247,1.319.376,1.974C79.295,283.318,80.8,289.457,86.89,294.036Z" transform="translate(-45.9 -193.196)" fill="#7ee8d4"/><path d="M53.639,198.281c.293,7.623.709,15.635,5.007,21.616,4.62,6.431,13.308,9.857,15.979,17.381.953,2.682,1.1,5.816,2.971,7.935,1.282,1.45,3.206,2.22,4.819,3.334,7.444,5.149,7.17,16.6,13.8,22.66a30.242,30.242,0,0,1,3.61,3.268c2.327,2.955,2.011,7.233,2.647,11.025,1.079,6.445,5.119,11.843,10.145,15.882s11.03,6.87,16.98,9.67" transform="translate(-43.748 -191.783)" fill="none" stroke="#4ca1ff" stroke-miterlimit="10" stroke-width="1" opacity="0.5"/><path d="M111.358,298.143a20.229,20.229,0,0,1,10.259,2.422c.326-5.076,2.033-6.13,3.173-7.988-8.469-8.013-20.97-8.649-21.727-25.192-.16-3.544.593-6.056.027-8.581-2.526,5.3-7.059,6.392-6.7,11.808.308,5.587,7.453,10.758,8.733,17.8C106.175,294.237,108.321,295.721,111.358,298.143Z" transform="translate(-31.873 -174.962)" fill="#5a4fd1" opacity="0.37"/></g><g transform="translate(211.264 483.837)"><path d="M176.289,355.224c-5.712-2.257-13.34-3.183-17,1.747-3.067,4.128-1.48,9.978.639,14.662,1.788,3.957,4.059,7.977,7.83,10.128,2.576,1.468,5.595,1.909,8.539,2.261a204.912,204.912,0,0,0,24.753,1.431c9.586-.027,21.2,3.887,29.128,9.866C220,376.4,195.512,362.815,176.289,355.224Z" transform="translate(-157.578 -353.394)" fill="#5084da"/><path d="M164.378,364.449c7.27.309,14.607.82,21.586,2.884,7.135,2.111,34.586,14.708,38.876,20.07" transform="translate(-155.688 -350.321)" fill="none" stroke="#0b43a4" stroke-linecap="round" stroke-linejoin="round" stroke-width="1" opacity="0.31"/></g><g transform="translate(501.415 272.813)"><path d="M392.274,260.431a11.591,11.591,0,0,0-.236,2.523c.012,3.94,1.6,7.673.006,11.6-.952,2.569-2.9,4.671-4.4,6.984a12.514,12.514,0,0,0-.92,1.531c-3.406,6.547-2.123,10.685.005,14.738.875,1.661,1.9,3.321,2.788,5.112a19.348,19.348,0,0,1,2.291,9.818,26.762,26.762,0,0,1-1.977,8.761,1.46,1.46,0,0,0,.714,1.71,1.577,1.577,0,0,0,1.753-.069,22.075,22.075,0,0,0,7.7-11.083c3.26-10.666-1.514-21.646,12.335-29.336,2.969-1.645,5.441-2.069,7.363-3.628a8.546,8.546,0,0,0,2.478-3.545c1.274-3.369.754-7.043,1.246-10.791,1.647-10.305,12.331-11.091,20.444-15.964,6.673-3.88,8.082-12.312,9.468-19.325,1.516-8.658,9.938-12.824,14.067-20.21s1.379-19.262-9.841-20.741c-11.38-1.834-20.24,6.68-27.9,12.636a22.1,22.1,0,0,0-4.874,5.255c-3.955,5.912-5.194,13.3-7.544,20.32a37.519,37.519,0,0,1-6.337,11.859,32.233,32.233,0,0,1-5.793,5.583c-.518.385-1.025.773-1.532,1.162C398.226,249.365,393.607,253.269,392.274,260.431Z" transform="translate(-384.626 -188.264)" fill="#7ee8d4"/><path d="M457.5,192.469c-6.406,3.494-13.092,7.261-16.387,13.489-3.542,6.7-2.779,15.6-8.089,21.087-1.894,1.958-4.515,3.417-5.533,5.922-.7,1.715-.538,3.692-.806,5.548-1.242,8.569-11.173,13.21-13.542,21.463a28.827,28.827,0,0,1-1.261,4.483c-1.541,3.252-5.342,4.8-8.319,6.96-5.062,3.666-7.967,9.426-9.288,15.451s-1.192,12.373-1.058,18.663" transform="translate(-382.262 -187.095)" fill="none" stroke="#4ca1ff" stroke-miterlimit="10" stroke-width="1" opacity="0.5"/></g><g transform="translate(456.581 471.825)"><path d="M369,374.9c8.7,4.91,12.254,16.7,19.476,19.657,8.943,3.763,12.181-6.29,26.811-2.79,12.278,2.937,15.133,17.151,36.177,14.194,6.425-.9,10.985-5.985,9.027-12.567-1.361-6.514-9.9-11.138-14.929-14.75-4.475-2.929-8.5-4.607-10.933-9.668-.024-.054-.05-.11-.072-.165-1.592-4.088-.62-7.577-4.758-10.763-9.651-8.083-23.054,2.865-34.565,1.761-8.117-.778-7.335-9.21-16.954-12.3-9.528-3.059-6.92,5.821-26.723-3.389a1.423,1.423,0,0,0-1.889.693h0a1.423,1.423,0,0,0,.2,1.505C363.119,362.145,356.193,367.676,369,374.9Z" transform="translate(-349.543 -343.993)" fill="#4a84d8"/><path d="M369,374.9c8.7,4.91,12.254,16.7,19.476,19.657,8.943,3.763,12.181-6.29,26.811-2.79,12.278,2.937,15.133,17.151,36.177,14.194,6.425-.9,10.985-5.985,9.027-12.567-1.361-6.514-9.9-11.138-14.929-14.75-4.475-2.929-8.5-4.607-10.933-9.668-.024-.054-.05-.11-.072-.165-1.592-4.088-.62-7.577-4.758-10.763-9.651-8.083-23.054,2.865-34.565,1.761-8.117-.778-7.335-9.21-16.954-12.3-9.528-3.059-6.92,5.821-26.723-3.389a1.423,1.423,0,0,0-1.889.693h0a1.423,1.423,0,0,0,.2,1.505C363.119,362.145,356.193,367.676,369,374.9Z" transform="translate(-349.543 -343.993)" fill="#00ad9f"/><path d="M356.851,351.966c4.589,2.61,7.832,6.993,11.431,10.856s8.1,7.477,13.379,7.68c3.237.125,6.557-1.056,9.661-.132,4.094,1.218,6.644,5.774,10.832,6.616,2.341.47,4.741-.33,7.13-.331,6.819,0,11.745,6.132,17.049,10.419a36.67,36.67,0,0,0,21.12,8.046" transform="translate(-347.511 -341.778)" fill="none" stroke="#4ca1ff" stroke-miterlimit="10" stroke-width="1" opacity="0.5"/></g><g transform="translate(48.295 356.821)"><g transform="translate(0 67.691)"><path d="M146.865,361.354s-37.948-8.3-67.132-5.177c-.923.1.2-5.654.2-5.654s-6.013,6.383-7.531,6.626c-16.05,2.565-31.688,8.091-42.352,18.925,0,0,19.414-79.759,125.742-67.9Z" transform="translate(-30.052 -306.97)" fill="#5084da"/></g><g transform="translate(27.555)"><path d="M162.932,380.354s-17-7.632-38.225-24.2c-.846-.661,3-5.755,3-5.755s-8.455,1.379-9.923.143C93.457,330.07,65.628,298.482,51.614,254c0,0,23.3.985,55.9,12.89,1.389.509,5.116,7.464,5.116,7.464s1.517-4.94,2.741-4.447a266.5,266.5,0,0,1,99.165,70.009Z" transform="translate(-51.614 -254.001)" fill="#5193f4"/></g><g transform="translate(27.555 1.084)" opacity="0.4"><path d="M51.614,254.849a391.151,391.151,0,0,1,41.445,21.818c13.437,7.983,26.4,16.752,39.038,25.951,6.346,4.569,12.4,9.527,18.554,14.341l8.972,7.549c1.488,1.266,3,2.5,4.469,3.794l4.312,3.974a382.893,382.893,0,0,1,32.756,33.478l-8.261-8.291-4.11-4.157c-1.394-1.361-2.848-2.662-4.268-4l-8.5-8.02-8.779-7.708c-5.8-5.195-11.919-10.022-17.89-15.014-6.175-4.742-12.245-9.62-18.6-14.122-12.476-9.315-25.405-18.021-38.6-26.3q-9.887-6.226-20.024-12.055Q62.018,260.214,51.614,254.849Z" transform="translate(-51.614 -254.849)" fill="#5084da"/><g transform="translate(42.383 47.391)"><path d="M131.352,300.027c-3.863-.941-7.719-1.78-11.559-2.627-3.849-.808-7.7-1.576-11.564-2.2-3.862-.666-7.747-1.107-11.646-1.5-3.905-.317-7.818-.468-11.8-.455a51.693,51.693,0,0,1,11.882-1.314A78.727,78.727,0,0,1,108.6,292.96,83.857,83.857,0,0,1,131.352,300.027Z" transform="translate(-84.779 -291.933)" fill="#5084da"/></g><g transform="translate(19.01 27.904)"><path d="M99.1,278.7c-2.751-.165-5.485-.262-8.209-.365-2.727-.077-5.445-.125-8.161-.075-2.717.023-5.422.2-8.13.417-2.7.266-5.392.645-8.11,1.146a35.861,35.861,0,0,1,7.945-2.363,54.569,54.569,0,0,1,8.269-.772A58.148,58.148,0,0,1,99.1,278.7Z" transform="translate(-66.49 -276.684)" fill="#5084da"/></g><g transform="translate(79.214 75.645)"><path d="M157.019,322.19a75.075,75.075,0,0,0-10.538-3.594,68.993,68.993,0,0,0-10.82-2.008,65.27,65.27,0,0,0-10.985-.348,96.469,96.469,0,0,0-11.076,1.224,41.845,41.845,0,0,1,10.915-2.988,44.991,44.991,0,0,1,11.4-.143,46.85,46.85,0,0,1,11.1,2.578A37.639,37.639,0,0,1,157.019,322.19Z" transform="translate(-113.6 -314.043)" fill="#5084da"/></g><g transform="translate(69.403 29.974)"><path d="M125.475,303.815a145.948,145.948,0,0,0-8.91-13.441c-1.574-2.149-3.287-4.189-5.058-6.189-1.746-2.037-3.684-3.876-5.585-5.881a30.345,30.345,0,0,1,6.832,4.624,39.488,39.488,0,0,1,5.623,6.082,43.909,43.909,0,0,1,4.333,7.043A32.137,32.137,0,0,1,125.475,303.815Z" transform="translate(-105.923 -278.304)" fill="#5084da"/></g><g transform="translate(101.631 50.127)"><path d="M151.727,326.991c-1.468-2.953-2.987-5.841-4.478-8.726-1.526-2.868-3.067-5.712-4.719-8.487-1.634-2.786-3.415-5.467-5.256-8.12a96.623,96.623,0,0,0-6.132-7.585,35.84,35.84,0,0,1,7.516,6.479,57.052,57.052,0,0,1,5.824,8.069A60.856,60.856,0,0,1,151.727,326.991Z" transform="translate(-131.142 -294.074)" fill="#5084da"/></g></g><g transform="translate(16.334 91.277)" opacity="0.5"><path d="M42.834,353.492c4.838-6.608,11.481-11.74,18.534-15.91a88.737,88.737,0,0,1,22.835-9.15l6.034-1.278c2.008-.446,4.065-.59,6.1-.88a101.346,101.346,0,0,1,12.271-.8c2.046-.132,4.093.077,6.137.148l6.123.3c4.056.515,8.1,1.073,12.12,1.71-4.084-.125-8.131-.461-12.182-.6l-6.08.023c-2.023.034-4.048-.07-6.062.165-4.025.377-8.071.445-12.044,1.189-1.986.334-4.008.468-5.969.929l-5.9,1.3A103.025,103.025,0,0,0,62.213,339.1a59.911,59.911,0,0,0-5.247,2.993c-.85.543-1.721,1.056-2.555,1.624l-2.457,1.766A58.825,58.825,0,0,0,42.834,353.492Z" transform="translate(-42.834 -325.427)" fill="#4ca1ff"/></g><g transform="translate(71.425 92.335)" opacity="0.5"><path d="M96.485,326.255c-2.211,3.526-4.365,6.86-6.166,10.386a41.728,41.728,0,0,0-4.006,11.229c-.979-4.114.093-8.54,1.987-12.263a27.894,27.894,0,0,1,3.519-5.2A21.023,21.023,0,0,1,96.485,326.255Z" transform="translate(-85.943 -326.255)" fill="#4ca1ff"/></g></g><g transform="translate(124.947 208.945)"><rect width="62.847" height="43.221" transform="translate(172.881 265.824)" fill="#006db7"/><rect width="62.847" height="15.665" transform="translate(172.881 265.824)" fill="#605aca" opacity="0.5"/><path d="M329.146,379.587H201.581a7.294,7.294,0,1,0,0,14.589H329.146a7.294,7.294,0,0,0,7.294-7.294h0A7.3,7.3,0,0,0,329.146,379.587Z" transform="translate(-61.059 -71.221)" fill="#006db7"/><path d="M336.442,385.684a7.3,7.3,0,0,1-7.3,7.288H201.583a7.3,7.3,0,0,1-7.3-7.288,6.473,6.473,0,0,1,.231-1.77,7.272,7.272,0,0,0,7.067,5.53H329.145a7.269,7.269,0,0,0,7.066-5.53A6.425,6.425,0,0,1,336.442,385.684Z" transform="translate(-61.06 -70.019)" fill="#605aca" opacity="0.5"/><rect width="402.22" height="268.657" rx="3.5" transform="translate(3.194 3.195)" fill="#fff"/><path d="M490.975,144.676a1.28,1.28,0,0,1,1.278,1.278V405.666a1.28,1.28,0,0,1-1.278,1.278H97.7a1.279,1.279,0,0,1-1.278-1.278V145.954a1.279,1.279,0,0,1,1.278-1.278H490.975m0-6.39H97.7a7.668,7.668,0,0,0-7.668,7.668V405.666a7.668,7.668,0,0,0,7.668,7.668H490.975a7.668,7.668,0,0,0,7.667-7.668V145.954a7.668,7.668,0,0,0-7.667-7.668Z" transform="translate(-90.034 -138.286)" fill="#006db7"/><g transform="translate(0 241.461)"><path d="M498.642,352.623v-25.39H90.034v25.39a8.649,8.649,0,0,0,8.652,8.652H489.991A8.649,8.649,0,0,0,498.642,352.623Z" transform="translate(-90.034 -327.233)" fill="#006db7"/></g><g transform="translate(172.809 27.128)"><circle cx="31.496" cy="31.496" r="31.496" fill="#c8eefb"/><g clip-path="url(#a)"><path d="M266.07,181.182A12.171,12.171,0,1,1,253.9,169.011,12.172,12.172,0,0,1,266.07,181.182Zm6.2,50.965V210.88a14.634,14.634,0,0,0-14.635-14.635h-7.464a14.634,14.634,0,0,0-14.635,14.635v21.267a4.056,4.056,0,0,0,4.056,4.056h28.622A4.056,4.056,0,0,0,272.267,232.147Z" transform="translate(-222.404 -156.875)" fill="#5084da"/></g></g><path d="M344.363,242.263H193.647A12.462,12.462,0,0,1,181.185,229.8h0a12.462,12.462,0,0,1,12.462-12.462H344.363A12.462,12.462,0,0,1,356.825,229.8h0A12.462,12.462,0,0,1,344.363,242.263Z" transform="translate(-64.7 -116.315)" fill="#c8eefb"/><path d="M335.99,231.053H195.738a3.254,3.254,0,0,1-3.254-3.255h0a3.255,3.255,0,0,1,3.254-3.255H335.99a3.255,3.255,0,0,1,3.255,3.255h0A3.254,3.254,0,0,1,335.99,231.053Z" transform="translate(-61.56 -114.313)" fill="#5084da"/><path d="M344.458,277.341H193.741a12.462,12.462,0,0,1-12.462-12.462h0a12.462,12.462,0,0,1,12.462-12.462H344.458a12.463,12.463,0,0,1,12.462,12.462h0A12.463,12.463,0,0,1,344.458,277.341Z" transform="translate(-64.674 -106.566)" fill="#c8eefb"/><path d="M194.757,266.3h0a3.256,3.256,0,0,1-3.255-3.255h0a3.255,3.255,0,0,1,3.255-3.255h0a3.254,3.254,0,0,1,3.255,3.255h0A3.255,3.255,0,0,1,194.757,266.3Zm12.933-3.255h0a3.255,3.255,0,0,0-3.255-3.255h0a3.254,3.254,0,0,0-3.255,3.255h0a3.255,3.255,0,0,0,3.255,3.255h0A3.256,3.256,0,0,0,207.69,263.048Zm9.676,0h0a3.254,3.254,0,0,0-3.254-3.255h0a3.254,3.254,0,0,0-3.255,3.255h0a3.255,3.255,0,0,0,3.255,3.255h0A3.255,3.255,0,0,0,217.366,263.048Zm9.678,0h0a3.254,3.254,0,0,0-3.255-3.255h0a3.254,3.254,0,0,0-3.254,3.255h0a3.255,3.255,0,0,0,3.254,3.255h0A3.255,3.255,0,0,0,227.044,263.048Zm9.678,0h0a3.254,3.254,0,0,0-3.255-3.255h0a3.254,3.254,0,0,0-3.255,3.255h0a3.255,3.255,0,0,0,3.255,3.255h0A3.255,3.255,0,0,0,236.722,263.048Zm9.676,0h0a3.254,3.254,0,0,0-3.254-3.255h0a3.254,3.254,0,0,0-3.255,3.255h0a3.255,3.255,0,0,0,3.255,3.255h0A3.255,3.255,0,0,0,246.4,263.048Zm9.678,0h0a3.254,3.254,0,0,0-3.255-3.255h0a3.254,3.254,0,0,0-3.254,3.255h0a3.255,3.255,0,0,0,3.254,3.255h0A3.255,3.255,0,0,0,256.076,263.048Z" transform="translate(-61.833 -104.516)" fill="#5084da"/><path d="M278.676,314.088H235.866A12.463,12.463,0,0,1,223.4,301.625h0a12.462,12.462,0,0,1,12.462-12.462h42.809a12.463,12.463,0,0,1,12.462,12.462h0A12.464,12.464,0,0,1,278.676,314.088Z" transform="translate(-52.967 -96.353)" fill="#5084da"/></g><path d="M392.874,368.8V354.555a8.487,8.487,0,0,0-8.487-8.487h-.74v-13.2a35.2,35.2,0,0,0-70.392,0v13.2h-.739a8.487,8.487,0,0,0-8.487,8.487V368.8Zm-67.987-35.934a23.565,23.565,0,1,1,47.13,0v13.2h-47.13Z" transform="translate(1249.217 272.675)" opacity="0.09"/><path d="M400.431,256.712a22.456,22.456,0,0,0-12.741-5.046c-.015-.468-.014-.93.006-1.528,2.6-.418,4.833-2.7,6.128-5.769,3.513-3.384,5.9-7.574,4.747-12.855a1.026,1.026,0,0,1,.128-.776c-1.512-2.7-4.3-4-7.389-6.8-10.39-9.415-22.738,3.666-18.062,9.053a9.67,9.67,0,0,1,1.309,2.967c-.008.033-.02.055-.028.091a4.47,4.47,0,0,0,.763,3.553,15.492,15.492,0,0,1,.093,1.591.932.932,0,0,1,.06.151,6.35,6.35,0,0,0,.874,2.215,8.253,8.253,0,0,0,5.294,6.217c.247.083.5.162.767.225a3.84,3.84,0,0,1,.111,1.7,20.428,20.428,0,0,0-8.314,2.783c-19.862,9.6-39.5,40.537-37.333,47.358s7.657,14.806,11.343,20.14l.58-.1q.447,1.541.892,3.084a2.131,2.131,0,0,0,2.76,1.836,3.858,3.858,0,0,0,2.486-.708,2.655,2.655,0,0,0,.725-1.323,5.612,5.612,0,0,0-.659-3.982l.432-.075s-8.561-12.813-8.249-20.625c.114-2.854,6.8-9.579,12.232-14.591-.125,1.739-.193,3.511-.193,5.307l20.819-12.879,4.926,32.05-28.35,43.095s2.248.443,5.852,1.02l3.5,37.184h14.075l.335-35.027.551.04.49.034q1.039.075,2.084.135l.709.04c.253.014.5.031.758.043l1.383,34.734H400.2l2.842-35.376.052-.01c.573-.092,1.137-.192,1.686-.3.244-.05.479-.1.717-.157q.692-.153,1.352-.327c.239-.064.475-.128.707-.2.442-.128.869-.267,1.287-.413.193-.068.392-.132.58-.2.589-.222,1.157-.458,1.688-.717l-.285-67.349c0-1.453-.045-2.865-.127-4.241-.006-.1-.014-.206-.02-.309q-.125-1.925-.354-3.747c-.015-.12-.031-.242-.047-.362s-.027-.22-.042-.33c2.745.544,6.318,1.2,10.99,1.99a19.906,19.906,0,0,0,8.816-.546V265.04C418.414,266.368,405.4,259.711,400.431,256.712Z" transform="translate(1250.377 256.203)" opacity="0.09"/><g transform="translate(292.674 344.576)"><circle cx="21.647" cy="21.647" r="21.647" fill="#94ebff" opacity="0.3"/><circle cx="11.748" cy="11.748" r="11.748" transform="translate(9.899 9.899)" fill="#94ebff" opacity="0.5"/></g><g transform="translate(1553.611 582.298)"><path d="M339.575,297.671a35.236,35.236,0,0,0-35.2,35.2v33.847h70.391V332.866A35.236,35.236,0,0,0,339.575,297.671ZM316.01,355.082V332.866a23.565,23.565,0,0,1,47.13,0v22.215Z" transform="translate(-295.154 -297.671)" fill="#f9714e"/><path d="M338.033,303.114a28.137,28.137,0,0,0-28.1,28.1v27.026h56.208V331.218A28.137,28.137,0,0,0,338.033,303.114ZM361.6,353.569h-47.13V331.354a23.565,23.565,0,1,1,47.13,0Z" transform="translate(-293.612 -296.158)" fill="#f9714e" opacity="0.4"/><rect width="88.844" height="70.873" rx="6.766" transform="translate(0 48.399)" fill="#ffb255"/><path d="M347.646,362.241A12.916,12.916,0,1,0,328.785,373.7v13.964h11.891V373.7A12.908,12.908,0,0,0,347.646,362.241Z" transform="translate(-290.308 -283.315)" fill="#f9714e"/><path d="M377.412,335.544H356.068a132.946,132.946,0,0,1-21.142,40.179c-8.584,11.154-22.1,25.308-37.387,25.012a8.483,8.483,0,0,0,8,5.682h71.871a8.486,8.486,0,0,0,8.487-8.485v-53.9A8.486,8.486,0,0,0,377.412,335.544Z" transform="translate(-297.055 -287.145)" fill="#ffb255" opacity="0.4"/></g><g transform="translate(1595.335 483.831)"><path d="M338.641,298.109l1.694,5.854a2.129,2.129,0,0,0,2.759,1.836,3.862,3.862,0,0,0,2.487-.708,2.655,2.655,0,0,0,.725-1.323,5.745,5.745,0,0,0-.811-4.257,17.038,17.038,0,0,0-2.892-3.362" transform="translate(-327.356 -199.627)" fill="#ffc2d3"/><path d="M420.96,246.808a46.686,46.686,0,0,1,2.781-7.94,3.884,3.884,0,0,1,.438,2.824,6.4,6.4,0,0,1,3.113-3.288.519.519,0,0,1,.851.422,9,9,0,0,1-5.37,10.561" transform="translate(-304.477 -215.707)" fill="#ffc2d3"/><path d="M377.669,387.308c4.972,1.212,9.135,2.675,11.417,4.722H369.921l.367-4.447Z" transform="translate(-318.662 -174.291)" fill="#5084da"/><path d="M360.127,387.308c-4.972,1.212-9.135,2.675-11.417,4.722h19.165l-.367-4.447Z" transform="translate(-324.557 -174.291)" fill="#5084da"/><g transform="translate(22.469 98.467)"><path d="M383.147,299.688,384.972,413a30.764,30.764,0,0,1-4.249.772,18.841,18.841,0,0,1-2.483-.345c-1.048-.213-1.96-.427-1.96-.427L372.9,327.994h-4.244L367.843,413a18.387,18.387,0,0,1-4.608.673,24.634,24.634,0,0,1-5-.673V295.757Z" transform="translate(-345.392 -296.671)" fill="#2e2c84"/></g><g transform="translate(35.837 99.291)" opacity="0.3"><path d="M373.777,299.3l-15.915-.981c-.194,20.713,2.921,94.73,3.24,115.155a19.1,19.1,0,0,0,3.834-.648l.812-85.009h4.244l3.381,85.009s.912.213,1.96.427c.309.055.624.11.932.16C376.264,390.259,374.176,308.818,373.777,299.3Z" transform="translate(-357.853 -298.316)" fill="#2e2c84" opacity="0.5"/></g><g transform="translate(35.549)"><path d="M360.783,241.189a1.062,1.062,0,0,1,.061.151c.684,3.719,4.213,5.624,8.135,6.707,3.188.88,3.928,1.265,6.488-.583,5.311-3.834,10.036-8.928,8.5-15.95a1.026,1.026,0,0,1,.128-.776c-1.51-2.7-4.3-4-7.389-6.8-10.39-9.415-22.738,3.666-18.062,9.053C359.4,233.861,360.789,237.664,360.783,241.189Z" transform="translate(-357.628 -220.619)" fill="#001f64"/></g><path d="M392.239,276.9c0-21.377-1.466-32.082-18.411-32.082s-15.86,10.705-15.86,32.082c0,0,.651,12.539,0,28.105s-12.58,41.33-12.58,41.33,39.5,7.834,54.519.5c0,0-9.768-26.359-9.839-43.2S392.239,276.9,392.239,276.9Z" transform="translate(-325.48 -213.893)" fill="#8fc2ff"/><path d="M382.253,275.412a85.622,85.622,0,0,0-1.327-15.927c-.968,23.263-2.282,85.2-24.58,84.954,8.288,1.609,20.156,2.822,26.091-1.678Z" transform="translate(-322.435 -209.817)" fill="#8fc2ff" opacity="0.3"/><path d="M378.647,236.239c-.634-4.207-4.382-8.425-8.96-6.239-2.937,1.4-5.976,1.564-8.373.282-.07.81-.17,1.991-.259,3.231-.507-.929-1.355-1.072-1.609.091-.272,1.243.064,3.556,1.4,3.991,0,.216-.005.433,0,.617.063,3.145,1.347,8.148,6.45,9.343a5.133,5.133,0,0,1-.138,2.952c.282.988,4.249,1.622,5.56.459a23.251,23.251,0,0,1-.1-3.27c3.017-.484,5.537-3.459,6.676-7.283C383.844,237.86,380.587,233.2,378.647,236.239Z" transform="translate(-321.598 -218.178)" fill="#ffc2d3"/><path d="M377.087,235.749a9.368,9.368,0,0,0-2.069-4.584c.125,7.31-2.987,14.1-10.047,15.675.248.083.5.162.767.225a5.133,5.133,0,0,1-.138,2.952c.282.988,4.249,1.622,5.56.459a23.257,23.257,0,0,1-.1-3.27c3.017-.484,5.537-3.459,6.676-7.283C382.284,237.371,379.027,232.714,377.087,235.749Z" transform="translate(-320.038 -217.688)" fill="#ffc2d3" opacity="0.3"/><path d="M367.308,247.113c-19.863,9.6-39.5,40.537-37.335,47.357s7.657,14.806,11.343,20.14l7.215-1.27s-8.561-12.812-8.249-20.624c.192-4.82,19.129-20.686,19.129-20.686Z" transform="translate(-329.81 -213.256)" fill="#8fc2ff"/><path d="M378.3,249.657c3.112,2.235,29.061,17.784,43.332,4.052,10.306-9.917,11.344-11.832,11.344-11.832l3.536,6.259s-16.129,28.462-35.639,25.17-20-4.305-20-4.305Z" transform="translate(-316.333 -214.711)" fill="#8fc2ff"/></g><g transform="translate(154.134 333.535)"><path d="M131.287,371.36a31.249,31.249,0,0,0-17.738,13.407h52.718A31.244,31.244,0,0,0,148.53,371.36V242.206H131.287v2.106H112.873v15.546h18.414v3.7H112.873v15.546h18.414Z" transform="translate(-112.873 -218.994)" opacity="0.09"/><g transform="translate(7.211 23.212)"><rect width="22.087" height="15.546" transform="translate(26.163 17.653) rotate(180)" fill="#ffb255"/><rect width="22.087" height="15.546" transform="translate(26.163 36.901) rotate(180)" fill="#ffb255"/><rect width="5.63" height="15.546" transform="translate(26.163 17.653) rotate(180)" fill="#ffc87c" opacity="0.5"/><rect width="5.63" height="15.546" transform="translate(26.163 36.901) rotate(180)" fill="#ffc87c" opacity="0.5"/><rect width="17.244" height="135.126" transform="translate(39.733 135.126) rotate(180)" fill="#ffb255"/><rect width="2.638" height="135.126" rx="0.822" transform="translate(32.43 139.779) rotate(-180)" fill="#ffc87c" opacity="0.5"/><g transform="translate(0 127.93)"><path d="M118.516,373.424a31.111,31.111,0,1,1,31.111,31.111A31.147,31.147,0,0,1,118.516,373.424Zm16.043,0a15.069,15.069,0,1,0,15.068-15.069A15.086,15.086,0,0,0,134.559,373.424Z" transform="translate(-118.516 -342.313)" fill="#ffb255"/></g><path d="M129.923,370.254a16.534,16.534,0,1,0,16.534-16.534A16.553,16.553,0,0,0,129.923,370.254Zm1.466,0a15.069,15.069,0,1,1,15.068,15.069A15.086,15.086,0,0,1,131.389,370.254Z" transform="translate(-115.346 -211.212)" fill="#ffc87c" opacity="0.5"/></g><g transform="translate(36.558)"><path d="M256.385,276.239c-5.457,4.836-25.128,25.436-28.733,14.225-2.855-8.876-8.842-21.09-12.35-25.187a16.749,16.749,0,0,0-8.511-5.218v-1.42c3.413-.015,8.747-.682,8.747-12.975,0-3.716-.354-6.165-.992-7.769a3.756,3.756,0,0,0,.231-4.23c-.955-1.573-3.462-2.939-5.13-3.678-3.945-1.747-9.1-2.561-12.883-.111a16.351,16.351,0,0,0-4.759-4.158,11.5,11.5,0,0,0-5.195-1.675c-3.637-.072-6.8,2.719-8.477,5.944a13.279,13.279,0,0,0-1.442,8.558,9.555,9.555,0,0,0,5.085,6.838,4.559,4.559,0,0,0,2.516.5,5.225,5.225,0,0,0,2.9-1.751c1.941-2.02,2.272-4.431,3.7-6.616a2.416,2.416,0,0,1,.794-.742,15.743,15.743,0,0,0-.67,4.378,26.178,26.178,0,0,0,3.418,12.122,7,7,0,0,0,2.031,2.653c.889.616,3.186,1.219,4.123.616l-.394,3.012a21.831,21.831,0,0,0-8,2.336v-.009c-14.786,3.4-25.938,39.7-45.714,37.294v.049c-2.4-.671-5.044-.861-5.182,1.494-.272,4.609,2.593,5.2,5.182,4.819v.1c8.277,0,34.77-13.612,44.411-24.267-1.8,10.164,1.044,26.635.566,37.34-.893,19.993-7.162,38.539-7.162,38.539,1.426.207-3.931,3.782-2.516,3.957l-2.915,28.673h12.593l.031-26.213c2.542.1,5.066.157,7.568.139l.3,26.074h14.6l2.822-27.343c2.587-.364,5.15-.8,7.683-1.33-.521-16.492-12.27-53.942-4.524-74.338.774.728,3.472,13.591,4.524,13.852,1.716.424,7.755,13.712,13.074,7.23,5.4-6.575,19.042-19.588,23.172-26.581C260.01,279.058,257.628,278.373,256.385,276.239Z" transform="translate(-141.48 -224.042)" opacity="0.09"/><path d="M194.071,248.6l-.831,6.363,6.692.734v-6.711Z" transform="translate(-127.094 -217.216)" fill="#f9acc8"/><path d="M155.519,285.443s-8.857-4.364-9.114,0c-.488,8.268,9.114,3.608,9.114,3.608Z" transform="translate(-140.116 -207.516)" opacity="0.1"/><path d="M156.5,284.462s-8.859-4.365-9.115,0c-.488,8.267,9.115,3.608,9.115,3.608Z" transform="translate(-139.843 -207.789)" fill="#ffc2d3"/><g transform="translate(60.933 10.934)"><path d="M189.161,243.287c0,5.784,5.972,12.977,11.754,12.977,3.4,0,8.9-.51,8.9-12.977,0-13.106-4.395-10.473-10.179-10.473A10.472,10.472,0,0,0,189.161,243.287Z" transform="translate(-189.161 -232.598)" fill="#ffc2d3"/></g><path d="M197.963,248.105a45.6,45.6,0,0,1,2.437-15.35c-.253.009-.509.015-.768.015a10.472,10.472,0,0,0-10.471,10.473c0,5.674,5.746,12.687,11.425,12.952A11.681,11.681,0,0,1,197.963,248.105Z" transform="translate(-128.228 -221.62)" fill="#ffc2d3" opacity="0.3"/><path d="M208.4,237.713c-.926.138-1.916-.3-2.786.046-1.392.562-1.485,2.684-2.768,3.463-1.6.974-4.017-.712-5.417.539-.824.737-.728,2.036-.643,3.145a23.609,23.609,0,0,1-.956,8.692c-.2.652.661,1.817.148,2.262-.854.74-3.319.092-4.244-.555a7.089,7.089,0,0,1-2.031-2.681,26.641,26.641,0,0,1-3.418-12.246c.033-4.284,1.784-8.708,5.243-11.187,3.808-2.727,9.138-1.9,13.192-.086,1.666.746,4.174,2.126,5.128,3.715C210.785,234.379,210.64,237.38,208.4,237.713Z" transform="translate(-129.027 -223.099)" fill="#ffb255"/><path d="M206.015,229.823c-1.365,1.22-2.74,3.422-3.769,4.142-1.421.994-3.123,1.194-4.741,1.691-7.448,2.287-7.963,13.71-4.71,19.808a2.512,2.512,0,0,0,1.9-.266c.512-.445-.348-1.61-.148-2.262a23.608,23.608,0,0,0,.956-8.692c-.086-1.109-.181-2.408.643-3.145,1.4-1.251,3.815.434,5.417-.539,1.283-.78,1.376-2.9,2.768-3.463.87-.35,1.859.092,2.786-.046,2.239-.334,2.385-3.334,1.449-4.892A8,8,0,0,0,206.015,229.823Z" transform="translate(-127.747 -222.435)" fill="#ffc87c" opacity="0.5"/><path d="M190.238,225.735a11.424,11.424,0,0,0-5.2-1.692c-3.636-.072-6.8,2.746-8.477,6.005a13.531,13.531,0,0,0-1.441,8.645,9.649,9.649,0,0,0,5.086,6.908,4.524,4.524,0,0,0,2.515.5,5.2,5.2,0,0,0,2.9-1.769c1.942-2.041,2.273-4.475,3.7-6.684,1.154-1.785,3.684-1.052,5.375-2.216C198.982,232.478,192.877,227.2,190.238,225.735Z" transform="translate(-132.186 -224.042)" fill="#ffb255"/><path d="M191.493,232.019c-.78-.4-1.389-1.131-2.161-1.518-1.1-1.2-6.76-1.83-7.94,6.045a9.364,9.364,0,0,1-4.02,5.954,8.334,8.334,0,0,0,2.157,1.507,4.524,4.524,0,0,0,2.515.5,5.2,5.2,0,0,0,2.9-1.769c1.942-2.041,2.273-4.475,3.7-6.684,1.154-1.785,3.684-1.052,5.375-2.216a3.431,3.431,0,0,0,1.217-1.384A4.56,4.56,0,0,1,191.493,232.019Z" transform="translate(-131.504 -222.446)" fill="#ffc87c" opacity="0.5"/><path d="M187.187,387.308c4.971,1.212,9.133,2.675,11.417,4.722H179.438l.367-4.447Z" transform="translate(-130.93 -178.665)" fill="#f9714e"/><path d="M200.631,387.308c4.972,1.212,9.135,2.675,11.417,4.722H192.883l.367-4.447Z" transform="translate(-127.194 -178.665)" fill="#f9714e"/><path d="M239.487,261.58a2.491,2.491,0,0,0-.4-.179,2.457,2.457,0,0,0-1.978.744,33.121,33.121,0,0,0-3.887,3.353h.006a4.617,4.617,0,0,0-.744.826,3.1,3.1,0,0,0-.231,3.323,2.817,2.817,0,0,0,2.291,1.346,5.936,5.936,0,0,0,4.024-1.758,2.809,2.809,0,0,0,.173-3.415,2.763,2.763,0,0,0-1.764-1.452,14.987,14.987,0,0,0,2.289-1.683,1.344,1.344,0,0,0,.4-.521A.486.486,0,0,0,239.487,261.58Z" transform="translate(-116.358 -213.671)" opacity="0.1"/><g transform="translate(115.8 46.22)"><g transform="translate(0 2.912)"><path d="M238.966,264.038a2.811,2.811,0,0,1-.174,3.416,5.927,5.927,0,0,1-4.024,1.757,2.819,2.819,0,0,1-2.291-1.346,3.1,3.1,0,0,1,.231-3.321C234.1,262.521,237.552,261.391,238.966,264.038Z" transform="translate(-232.095 -262.488)" fill="#ffc2d3"/></g><g transform="translate(1.351)"><path d="M236.418,263.53a14.93,14.93,0,0,0,2.78-1.994,1.331,1.331,0,0,0,.4-.521.483.483,0,0,0-.181-.583,1.735,1.735,0,0,0-2.379.565,32.872,32.872,0,0,0-3.887,3.353A6.925,6.925,0,0,0,236.418,263.53Z" transform="translate(-233.152 -260.209)" fill="#ffc2d3"/></g></g><g transform="translate(79.385 41.235)"><path d="M220.226,282.215c7.109-4.728,12.737-9.8,19.175-15.513a.971.971,0,0,1,1.388.1c1.181,1.4,3.108,3.494,2.9,4.376a3,3,0,0,1-.8,1.257l-18.029,19.98A19.672,19.672,0,0,1,220.987,296a6.645,6.645,0,0,1-5.048,1.063c-2.892-.716-4.511-3.693-6.087-6.222-7.765-12.471-6.486-16.98-5.537-20.821.661-2.673,1.494-5.309,1.977-8.024.152-.858-1.9-5.629-.73-5.689,3.507,4.1,8.764,16.579,12.349,25.187A1.573,1.573,0,0,0,220.226,282.215Z" transform="translate(-203.6 -256.309)" fill="#f9714e"/></g><g transform="translate(39.923 104.397)"><path d="M172.72,308.249l6.508,98.418a18.7,18.7,0,0,0,3.06.675,11.4,11.4,0,0,0,1.788-.3c.754-.187,1.411-.373,1.411-.373l.065-74.4h5.382l.63,74.4a11.124,11.124,0,0,0,3.319.589,14.844,14.844,0,0,0,3.6-.589l7.811-100.933Z" transform="translate(-167.68 -301.542)" fill="#4b48b5"/><g transform="translate(23.244 10.294)"><path d="M190.909,313.793c.054,3.471-.187,6.6,1.022,9.757a6.106,6.106,0,0,0,6.163,4.008c4.474-.092,7.578-2.532,7.6-7.049,0-.581.288-6.708.581-6.719Z" transform="translate(-190.909 -313.789)" fill="#568edb"/></g><g transform="translate(2.027 10.303)"><path d="M174.306,313.8c.052,3.471-.1,6.6.757,9.761.67,2.468,2.174,4.083,4.312,4.036,3.116-.07,4.854-3.535,5.259-7.013.066-.575.17-6.705.373-6.716Z" transform="translate(-174.306 -313.796)" fill="#568edb"/></g><g transform="translate(0.135 6.065)"><path d="M190.5,332.036l.033,0a.188.188,0,0,0,.151-.217c-1.2-6.962-.374-20.29-.367-20.424a.184.184,0,0,0-.054-.143.2.2,0,0,0-.142-.055c-.121.005-12.059.561-17.068-.707a.184.184,0,0,0-.226.137.186.186,0,0,0,.135.226c4.69,1.186,15.344.795,16.97.726-.1,1.73-.74,13.777.383,20.3A.188.188,0,0,0,190.5,332.036Z" transform="translate(-172.825 -310.48)" fill="#5e9ce4"/></g><g transform="translate(18.516 4.078)"><path d="M188,332.468h.017a.188.188,0,0,0,.17-.2,111.491,111.491,0,0,1-.262-20.19,158.4,158.4,0,0,0,25.712-2.78.187.187,0,0,0,.149-.217.183.183,0,0,0-.217-.151,157.408,157.408,0,0,1-25.815,2.776.184.184,0,0,0-.184.17,111.307,111.307,0,0,0,.244,20.424A.187.187,0,0,0,188,332.468Z" transform="translate(-187.209 -308.925)" fill="#5e9ce4"/></g><g transform="translate(13.442 27.381)" opacity="0.16"><path d="M185.565,405.264c1.047-.194,1.959-.388,1.959-.388l.091-77.466h.627a.451.451,0,0,0-.627-.194,7.771,7.771,0,0,0-3.067,2.873,5.939,5.939,0,0,0-1.167,3.366C182.783,357.332,184.173,375.508,185.565,405.264Z" transform="translate(-183.238 -327.16)" fill="#4e84d9"/></g><g transform="translate(34.835 5.78)"><path d="M200.148,407.422a.187.187,0,0,1-.167-.2l.157-1.536a.181.181,0,0,1,.2-.166.186.186,0,0,1,.166.2l-.156,1.535a.186.186,0,0,1-.185.169Zm.461-4.514a.186.186,0,0,1-.166-.2l.3-2.975a.175.175,0,0,1,.2-.167.186.186,0,0,1,.167.2l-.3,2.976a.187.187,0,0,1-.185.169Zm.607-5.953a.186.186,0,0,1-.166-.2l.3-2.976a.186.186,0,0,1,.371.038l-.3,2.975a.186.186,0,0,1-.187.169Zm.608-5.953a.186.186,0,0,1-.166-.2l.3-2.978c.01-.1.109-.2.2-.166a.186.186,0,0,1,.166.2l-.3,2.978a.186.186,0,0,1-.185.167Zm.61-5.954a.185.185,0,0,1-.166-.2l.3-2.978a.179.179,0,0,1,.2-.166.187.187,0,0,1,.167.2l-.3,2.978a.187.187,0,0,1-.185.169Zm.607-5.953a.186.186,0,0,1-.166-.2l.3-2.976c.009-.1.1-.2.2-.166a.186.186,0,0,1,.166.2l-.3,2.975a.184.184,0,0,1-.185.169Zm.608-5.954a.186.186,0,0,1-.166-.2l.305-2.976a.179.179,0,0,1,.2-.166.186.186,0,0,1,.166.2l-.305,2.976a.186.186,0,0,1-.185.167Zm.61-5.954a.187.187,0,0,1-.167-.2l.3-2.975c.01-.1.109-.2.2-.167a.187.187,0,0,1,.167.2l-.3,2.976a.186.186,0,0,1-.185.167Zm.607-5.951a.186.186,0,0,1-.166-.2l.3-2.978a.176.176,0,0,1,.2-.166.186.186,0,0,1,.166.2l-.3,2.976a.184.184,0,0,1-.185.169Zm.608-5.954a.186.186,0,0,1-.166-.2l.305-2.978a.184.184,0,0,1,.185-.167h.019a.186.186,0,0,1,.166.2l-.305,2.978a.186.186,0,0,1-.185.167Zm.61-5.954a.186.186,0,0,1-.167-.2l.3-2.975c.01-.1.11-.2.2-.167a.185.185,0,0,1,.166.2l-.3,2.976a.186.186,0,0,1-.185.169Zm.607-5.953a.186.186,0,0,1-.166-.2l.3-2.976a.178.178,0,0,1,.2-.166.186.186,0,0,1,.166.2l-.3,2.975a.186.186,0,0,1-.185.169Zm.608-5.953a.185.185,0,0,1-.166-.2l.3-2.978a.174.174,0,0,1,.206-.166.186.186,0,0,1,.166.2l-.305,2.978a.186.186,0,0,1-.185.167Zm.61-5.953a.186.186,0,0,1-.167-.206l.3-2.976a.182.182,0,0,1,.2-.167.185.185,0,0,1,.166.2l-.3,2.978a.186.186,0,0,1-.187.169Zm.607-5.954a.186.186,0,0,1-.166-.2l.3-2.976c.01-.1.109-.2.2-.166a.186.186,0,0,1,.166.2l-.3,2.975a.186.186,0,0,1-.185.169Zm.608-5.954a.187.187,0,0,1-.167-.2l.305-2.976a.176.176,0,0,1,.2-.166.187.187,0,0,1,.167.2l-.305,2.976a.186.186,0,0,1-.185.167Zm.61-5.954a.186.186,0,0,1-.167-.2l.3-2.975c.009-.1.1-.2.2-.167a.186.186,0,0,1,.166.2l-.3,2.976a.184.184,0,0,1-.185.167Z" transform="translate(-199.979 -310.257)" fill="#5e9ce4"/></g></g><path d="M197.151,253.65c-14.784,3.4-25.937,39.7-45.713,37.294V297.4c9.256,0,21.895-2.955,32.257-17.157C198.68,259.709,197.151,253.65,197.151,253.65Z" transform="translate(-138.712 -215.813)" fill="#f9714e"/><path d="M197.151,253.65c-14.784,3.4-25.937,39.7-45.713,37.294V297.4c9.256,0,21.895-2.955,32.257-17.157C198.68,259.709,197.151,253.65,197.151,253.65Z" transform="translate(-138.712 -215.813)" fill="#f9714e" opacity="0.3"/><path d="M214.562,257.573c5.556,6.368-5.19,27.857-4.329,51.859.534,14.89,13.284,31.354,13.685,44.065-16.364,3.434-33.906,3.289-52.278.634l8.556-44.7s.343-19.313,0-31.607c-.12-4.255-3.143-3.354-2.211-6.382C184.233,251.143,204.981,246.594,214.562,257.573Z" transform="translate(-133.214 -216.338)" fill="#f9714e"/><path d="M184.163,324.761a116.192,116.192,0,0,1-4.893-34.3c.028-9.8.27-20.433,2.842-30.1a32.254,32.254,0,0,0-4.126,8.7c-1.152,3.744,3.821,6.731,4.126,11.247.548,8.133-2.27,18.372-2.842,27.66C177.885,330.448,167.2,351.3,167.2,351.3a242.715,242.715,0,0,0,31.627,2.4A87.608,87.608,0,0,1,184.163,324.761Z" transform="translate(-133.214 -213.949)" fill="#f9714e" opacity="0.3"/></g></g><g transform="translate(77.483 286.853)"><path d="M68.419,247.177c1.334-.07,10.432-6.809,13.936-9.08a9.6,9.6,0,0,0,2.676-2.261,3.376,3.376,0,0,0,.509-3.32,4.189,4.189,0,0,0-4.258-2.63c-4.533.01-6.106,1.5-8.31,3.779C65.681,241.2,68.419,247.177,68.419,247.177Z" transform="translate(-48.717 -190.736)" fill="#00ad9f"/><path d="M101.641,265.96c3.962,1.78,8.194,3.555,12.5,3,1.672-.215,3.5-.974,4.051-2.563a3.745,3.745,0,0,0-1.257-3.871,8.942,8.942,0,0,0-3.9-1.757c-5.273-1.288-12.676-.575-17.9.907A45.973,45.973,0,0,0,101.641,265.96Z" transform="translate(-41.15 -182.338)" fill="#00ad9f"/><path d="M121.451,220.728c-1.767-1.117-3.719-2.61-3.717-4.7s2.188-3.692,4.282-3.7a8.785,8.785,0,0,1,5.615,2.515c6.666,5.852,5.835,12.525,5.835,12.525S123.418,221.971,121.451,220.728Z" transform="translate(-34.87 -195.617)" fill="#00ad9f"/><path d="M125.754,206.512a8.57,8.57,0,0,1-4.06-2.892,2.759,2.759,0,0,1-.42-2.342c.456-1.3,1.269-2.461,4.537-1.868,10.346,1.877,12.6,8.963,12.6,8.963S128.5,207.693,125.754,206.512Z" transform="translate(-33.918 -199.251)" fill="#00ad9f"/><path d="M148.476,220.454a16.352,16.352,0,0,0,11.052-5.668,10.112,10.112,0,0,0,2.221-4.111,4.5,4.5,0,0,0-1.213-4.327,4.576,4.576,0,0,0-5.358.005,10.772,10.772,0,0,0-3.461,4.506C150.608,213.162,148.476,220.454,148.476,220.454Z" transform="translate(-26.326 -197.518)" fill="#00ad9f"/><path d="M100.937,372.3,70.791,345.724c-5.356-4.721-10.824-9.581-14.216-15.863-7.292-13.5-3.089-31.051,6.759-42.822s24.272-18.723,38.761-23.782,29.573-8.608,43.386-15.3c8.662-4.2,17.372-10.447,19.748-19.775a19.73,19.73,0,0,0-17.945-24.566" transform="translate(-52.892 -198.036)" fill="none" stroke="#086356" stroke-linecap="round" stroke-linejoin="round" stroke-width="1"/><path d="M157.955,209.66c-2.746,8.432-13.441,13.561-18.323,20.863" transform="translate(-28.784 -196.358)" fill="none" stroke="#086356" stroke-linecap="round" stroke-linejoin="round" stroke-width="1"/><path d="M123.921,217.248c2.106,2.224,4.629,4.063,6.466,6.512,3.882,5.178,4.207,13.59-1.537,18.81" transform="translate(-33.151 -194.249)" fill="none" stroke="#086356" stroke-linecap="round" stroke-linejoin="round" stroke-width="1"/><path d="M81.576,254.185A57.348,57.348,0,0,0,113.28,266" transform="translate(-44.92 -183.983)" fill="none" stroke="#086356" stroke-linecap="round" stroke-linejoin="round" stroke-width="1"/><path d="M66.022,271.339a31.288,31.288,0,0,1,10.519-34.1" transform="translate(-49.662 -188.693)" fill="none" stroke="#086356" stroke-linecap="round" stroke-linejoin="round" stroke-width="1"/></g><g transform="translate(443.973 196.924)"><path d="M340.687,135.717a4.443,4.443,0,0,1,.641-4.433,3.252,3.252,0,0,1,3.464-.778c8.79,3.877,7.839,17.63,7.839,17.63S344.3,146.928,340.687,135.717Z" transform="translate(-339.478 -128.488)" fill="#00ad9f"/><path d="M340.671,155.393c-5.686,10.308,14.522,9.521,21.809,3.452C362.481,158.845,345.566,146.522,340.671,155.393Z" transform="translate(-339.676 -122.403)" fill="#00ad9f"/><path d="M360.727,136.889c-1.371-1.886-1.859-4.7-.366-6.485a4.978,4.978,0,0,1,4.751-1.416,11.125,11.125,0,0,1,5.34,3.264c6.65,8.3,3.525,16.42,3.525,16.42S362.974,139.979,360.727,136.889Z" transform="translate(-334.182 -128.879)" fill="#00ad9f"/><path d="M423.3,156.333c-.491-1.605-.376-3.564.868-4.689a3.967,3.967,0,0,1,2.957-.886,8.968,8.968,0,0,1,3.022.9,9.671,9.671,0,0,1,4.654,4.64c2.5,5.164.8,11.555.8,11.555S424.528,160.333,423.3,156.333Z" transform="translate(-316.509 -122.802)" fill="#00ad9f"/><path d="M407.236,170.6a12.946,12.946,0,0,0-13.4-2.162,6.873,6.873,0,0,0-2.866,2.157c-1.6,2.215-1.036,5.452.62,7.622s4.169,3.489,6.649,4.618c4.5,2.047,11.477,2.456,16.263,3.682C414.5,186.521,414.482,176.989,407.236,170.6Z" transform="translate(-325.684 -118.16)" fill="#00ad9f"/><path d="M345.551,136.266c2.972,9.761,11.386,17.127,20.755,21.111s19.685,5.036,29.84,5.7,20.429.987,30.249,3.66c9.57,2.606,19.1,8.033,23.207,17.087,5,11.018.573,24.2-6.446,34.045s-16.467,17.787-23.257,27.8c-3.118,4.6-5.721,9.977-5.091,15.5.84,7.362,7.025,12.784,12.772,17.442" transform="translate(-338.043 -126.826)" fill="none" stroke="#086356" stroke-linecap="round" stroke-linejoin="round" stroke-width="1"/><path d="M363.865,133.464a58.484,58.484,0,0,1,13.417,29.124" transform="translate(-332.953 -127.605)" fill="none" stroke="#086356" stroke-linecap="round" stroke-linejoin="round" stroke-width="1"/><path d="M346.16,156.666a46.479,46.479,0,0,0,11.728,2.065c3.979.01,8.591-2.2,11.453-4.976" transform="translate(-337.874 -121.966)" fill="none" stroke="#086356" stroke-linecap="round" stroke-linejoin="round" stroke-width="1"/><path d="M428.4,155.593a19.959,19.959,0,0,1,5.983,13.434c.187,5.022-2.592,11.11-5.926,14.862" transform="translate(-315.018 -121.455)" fill="none" stroke="#086356" stroke-linecap="round" stroke-linejoin="round" stroke-width="1"/><path d="M398.885,173.431a200.522,200.522,0,0,0,21.472,17.67c3.654,2.578,10.907,5.882,14.126,5.031" transform="translate(-323.22 -116.497)" fill="none" stroke="#086356" stroke-linecap="round" stroke-linejoin="round" stroke-width="1"/></g></g></svg>