<svg xmlns="http://www.w3.org/2000/svg" width="15.423" height="17.82" viewBox="0 0 15.423 17.82"><path d="M15.42,17.234l-1.354-12.9a.53.53,0,0,0-.528-.475H10.992v-.58a3.281,3.281,0,0,0-6.562,0v.58H1.884a.53.53,0,0,0-.528.475L0,17.234a.53.53,0,0,0,.528.586H14.892a.53.53,0,0,0,.528-.586ZM5.491,3.282a2.22,2.22,0,0,1,4.441,0v.58H5.491ZM1.119,16.759,2.362,4.923H4.43V6.091a.53.53,0,0,0,1.061,0V4.923H9.932V6.091a.53.53,0,1,0,1.061,0V4.923H13.06L14.3,16.759Zm0,0" transform="translate(0 0)" fill="#fff"/></svg>