<svg xmlns="http://www.w3.org/2000/svg" width="27.598" height="20.871" viewBox="0 0 27.598 20.871"><path d="M166.592,273.171c3.987,0,7.977.018,11.964-.012a1.774,1.774,0,0,1,1.848,1.771q-.014,8.669-.006,17.338a1.67,1.67,0,0,1-1.838,1.762h-23.9a1.674,1.674,0,0,1-1.851-1.774q0-8.66.009-17.313a2.078,2.078,0,0,1,.242-.955,1.522,1.522,0,0,1,1.433-.816Q160.543,273.176,166.592,273.171Zm-10.945,1.71c3.671,3.941,7.308,7.845,10.957,11.764,3.659-3.932,7.289-7.833,10.954-11.764Zm.064,17.433h21.782c-2.317-2.489-4.6-4.948-6.9-7.415-1.019,1.086-2.01,2.151-3,3.21a1.219,1.219,0,0,1-1.977,0c-.565-.6-1.126-1.206-1.691-1.811-.433-.464-.866-.924-1.314-1.4C160.313,287.372,158.029,289.825,155.712,292.314Zm-1.129-16.089v14.751l6.857-7.375C159.153,281.139,156.891,278.708,154.583,276.225Zm17.184,7.375c2.283,2.455,4.549,4.892,6.85,7.366V276.231Z" transform="translate(-152.807 -273.159)" fill="#243d4c"/></svg>