<svg xmlns="http://www.w3.org/2000/svg" width="25" height="20" viewBox="0 0 30.702 29.819"><g transform="translate(1039.271 1003.309) rotate(180)" opacity="0.5"><g transform="translate(1008.569 973.49)"><path d="M28.06,54.547,15.352,67.257,2.645,54.545A1.55,1.55,0,0,0,.453,56.739l13.8,13.807h0a1.547,1.547,0,0,0,2.19,0l13.8-13.807a1.549,1.549,0,1,0-2.189-2.192Z" transform="translate(0 -54.091)" fill="#000000"/></g><g transform="translate(1008.569 986.4)"><path d="M28.06,54.547,15.352,67.257,2.645,54.545A1.55,1.55,0,0,0,.453,56.739l13.8,13.807h0a1.547,1.547,0,0,0,2.19,0l13.8-13.807a1.549,1.549,0,1,0-2.189-2.192Z" transform="translate(0 -54.091)" fill="#000000"/></g></g></svg>