<svg xmlns="http://www.w3.org/2000/svg" width="24.598" height="19.679" viewBox="0 0 24.598 19.679"><g transform="translate(0 0)"><path d="M11.736,7380.679a14.147,14.147,0,0,0,14.359-14.139c0-.215,0-.43-.015-.643a10.215,10.215,0,0,0,2.518-2.57,10.193,10.193,0,0,1-2.9.781,5.009,5.009,0,0,0,2.219-2.75,10.15,10.15,0,0,1-3.205,1.208,5.108,5.108,0,0,0-7.141-.216,4.925,4.925,0,0,0-1.46,4.747,14.41,14.41,0,0,1-10.4-5.19,4.925,4.925,0,0,0,1.563,6.631,5.052,5.052,0,0,1-2.291-.62v.062a4.989,4.989,0,0,0,4.049,4.87,5.071,5.071,0,0,1-2.278.086,5.044,5.044,0,0,0,4.714,3.452,10.228,10.228,0,0,1-6.267,2.13,10.533,10.533,0,0,1-1.2-.071,14.452,14.452,0,0,0,7.736,2.229" transform="translate(-4 -7361)" fill="#fff" fill-rule="evenodd"/></g></svg>