<svg xmlns="http://www.w3.org/2000/svg" width="15.661" height="17.819" viewBox="0 0 15.661 17.819"><g transform="translate(3.132)"><g transform="translate(0)"><path d="M125.7,0a4.7,4.7,0,1,0,4.7,4.7A4.7,4.7,0,0,0,125.7,0Zm0,8.353A3.654,3.654,0,1,1,129.353,4.7,3.659,3.659,0,0,1,125.7,8.353Z" transform="translate(-121)" fill="#fff"/></g></g><g transform="translate(0 10.476)"><g transform="translate(0)"><path d="M40.287,301H37.375A7.546,7.546,0,0,0,31,304.5v3.847H46.662V304.5A7.548,7.548,0,0,0,40.287,301Zm5.331,6.3H32.044v-2.484a6.5,6.5,0,0,1,5.331-2.772h2.912a6.5,6.5,0,0,1,5.331,2.772Z" transform="translate(-31 -301)" fill="#fff"/></g></g></svg>