<svg xmlns="http://www.w3.org/2000/svg" width="34" height="34" viewBox="0 0 34 34"><circle cx="17" cy="17" r="17" fill="#6f3faa"/><g transform="translate(7.506 7.187)"><path d="M132.8,114.187l-.006-.023a6.546,6.546,0,0,0-4.42-4.253l-.021,0a24.563,24.563,0,0,0-9.245,0l-.022,0a6.549,6.549,0,0,0-4.42,4.253l-.005.023a18.1,18.1,0,0,0,0,7.8l.005.023a6.6,6.6,0,0,0,4.176,4.19v2.067a.831.831,0,0,0,1.43.576l2.095-2.177c.454.025.909.04,1.363.04a24.647,24.647,0,0,0,4.623-.439l.021,0a6.547,6.547,0,0,0,4.42-4.253l.006-.023A18.1,18.1,0,0,0,132.8,114.187Zm-1.658,7.42a4.951,4.951,0,0,1-3.12,2.988,22.892,22.892,0,0,1-4.918.4.116.116,0,0,0-.087.035l-1.529,1.57-1.627,1.669a.19.19,0,0,1-.328-.132v-3.425a.118.118,0,0,0-.1-.116h0a4.953,4.953,0,0,1-3.12-2.988,16.421,16.421,0,0,1,0-7.045,4.953,4.953,0,0,1,3.12-2.988,22.876,22.876,0,0,1,8.585,0,4.95,4.95,0,0,1,3.12,2.988A16.4,16.4,0,0,1,131.14,121.607Z" transform="translate(-114.234 -109.468)" fill="#fff"/><path d="M189.843,182.9c-.192-.058-.374-.1-.544-.168a12.349,12.349,0,0,1-4.654-3.11,12.076,12.076,0,0,1-1.78-2.724c-.229-.464-.421-.947-.617-1.426a1.238,1.238,0,0,1,.362-1.218,2.862,2.862,0,0,1,.959-.72.615.615,0,0,1,.77.182,9.922,9.922,0,0,1,1.191,1.667.793.793,0,0,1-.222,1.074c-.09.061-.172.133-.256.2a.841.841,0,0,0-.193.2.559.559,0,0,0-.037.49,4.439,4.439,0,0,0,2.493,2.76,1.269,1.269,0,0,0,.639.155c.39-.046.517-.474.791-.7a.745.745,0,0,1,.9-.039c.288.182.567.378.845.576a9.644,9.644,0,0,1,.8.606.631.631,0,0,1,.189.781,2.641,2.641,0,0,1-1.135,1.25,2.744,2.744,0,0,1-.491.156C189.652,182.842,190.01,182.849,189.843,182.9Z" transform="translate(-177.639 -169.181)" fill="#fff"/><path d="M250.3,165.413a4.669,4.669,0,0,1,4.589,3.861c.069.387.093.783.124,1.176a.276.276,0,0,1-.259.324c-.184,0-.267-.152-.279-.317-.024-.327-.04-.655-.085-.98a4.105,4.105,0,0,0-3.306-3.432c-.256-.046-.519-.058-.778-.085-.164-.017-.379-.027-.415-.231a.28.28,0,0,1,.277-.316c.044,0,.089,0,.133,0C252.6,165.478,250.258,165.413,250.3,165.413Z" transform="translate(-240.803 -161.666)" fill="#fff"/><path d="M259.672,187.052a1.051,1.051,0,0,1-.023.16.261.261,0,0,1-.491.027.693.693,0,0,1-.028-.222,2.783,2.783,0,0,0-.352-1.4,2.6,2.6,0,0,0-1.09-1.022,3.132,3.132,0,0,0-.869-.267c-.131-.022-.263-.035-.395-.053a.25.25,0,0,1-.237-.281.247.247,0,0,1,.275-.244,3.613,3.613,0,0,1,1.505.392,3.045,3.045,0,0,1,1.657,2.366c.007.048.019.1.022.144.009.119.015.239.024.4C259.668,187.081,259.663,186.895,259.672,187.052Z" transform="translate(-246.681 -178.778)" fill="#fff"/><path d="M263.106,204.532a.284.284,0,0,1-.315-.279,2.878,2.878,0,0,0-.054-.367,1.032,1.032,0,0,0-.381-.6,1,1,0,0,0-.31-.15c-.141-.041-.287-.03-.428-.064a.262.262,0,0,1-.213-.3.276.276,0,0,1,.291-.222,1.58,1.58,0,0,1,1.618,1.574.726.726,0,0,1,0,.223.229.229,0,0,1-.205.188C262.914,204.536,263.194,204.526,263.106,204.532Z" transform="translate(-251.545 -196.314)" fill="#fff"/></g><path d="M295.661,313.754c.167-.051-.192-.058,0,0Z" transform="translate(-275.974 -292.881)" fill="#fff"/><g transform="translate(17 10.985)"><path d="M256.07,165.427h0Z" transform="translate(-256.064 -165.427)" fill="#fff"/><path d="M256.072,165.426h.006C256.205,165.431,258.279,165.488,256.072,165.426Z" transform="translate(-256.071 -165.426)" fill="#fff"/></g><g transform="translate(19.044 12.327)"><path d="M299.652,185.837l-.4.358a4.057,4.057,0,0,1,1.2,2.339c.045.324.062.653.085.98.012.165.095.319.279.317a.276.276,0,0,0,.259-.324c-.031-.393-.055-.789-.124-1.176A4.613,4.613,0,0,0,299.652,185.837Z" transform="translate(-298.427 -185.837)" fill="#d1d1d1"/><path d="M288.366,198.605a3.067,3.067,0,0,0-.972-1.89l-.4.357a2.619,2.619,0,0,1,.528.642,2.783,2.783,0,0,1,.352,1.4.694.694,0,0,0,.028.222.261.261,0,0,0,.491-.027,1.047,1.047,0,0,0,.023-.16c0,.029-.009-.158,0,0-.009-.158-.015-.277-.024-.4C288.385,198.7,288.373,198.653,288.366,198.605Z" transform="translate(-286.991 -195.986)" fill="#d1d1d1"/></g><g transform="translate(18.974 15.41)"><path d="M308.142,232.126c-.009-.158,0,.029,0,0Z" transform="translate(-306.644 -232.061)" fill="#fff"/><path d="M286.53,232.159l.009,0h-.009Z" transform="translate(-286.461 -232.151)" fill="#fff"/><path d="M285.911,232.168h-.025C285.845,232.168,285.8,232.17,285.911,232.168Z" transform="translate(-285.842 -232.16)" fill="#fff"/><path d="M286.881,232.157l-.009,0C286.894,232.158,286.893,232.157,286.881,232.157Z" transform="translate(-286.803 -232.151)" fill="#fff"/></g><path d="M275.1,207.525l-.41.364c.023.014.045.028.066.044a1.033,1.033,0,0,1,.381.6,2.907,2.907,0,0,1,.054.367.281.281,0,0,0,.29.278h.033a.228.228,0,0,0,.2-.186.727.727,0,0,0,0-.223A1.63,1.63,0,0,0,275.1,207.525Z" transform="translate(-256.45 -193.75)" fill="#d1d1d1"/></svg>