<svg xmlns="http://www.w3.org/2000/svg" width="50.357" height="50.357" viewBox="0 0 50.357 50.357"><path d="M25.178,50.357A25.178,25.178,0,1,1,38.446,3.775a1.481,1.481,0,0,1-1.563,2.516,22.179,22.179,0,1,0,9.324,11.7,1.481,1.481,0,0,1,2.8-.958A25.195,25.195,0,0,1,25.178,50.357Z" fill="#039ddc"/><path d="M120.755,85.851a1.478,1.478,0,0,1-1.014-.4l-11.849-11.13a1.481,1.481,0,1,1,2.028-2.158l10.709,10.06,19.459-23.1a1.481,1.481,0,1,1,2.265,1.908l-20.466,24.3a1.482,1.482,0,0,1-1.046.525Z" transform="translate(-95.576 -52.131)" fill="#039ddc"/></svg>