<svg xmlns="http://www.w3.org/2000/svg" width="21.005" height="16" viewBox="0 0 21.005 16"><g opacity="0.89"><path d="M201.864,169.17l-4.923-3.077a.615.615,0,0,0-.942.522v6.154a.615.615,0,0,0,.942.522l4.923-3.077a.615.615,0,0,0,0-1.044Zm-4.634,2.488v-3.933l3.147,1.967Z" transform="translate(-187.958 -161.692)" fill="#fff"/><path d="M17.928,61H3.077A3.08,3.08,0,0,0,0,64.077v9.846A3.08,3.08,0,0,0,3.077,77H17.928a3.08,3.08,0,0,0,3.077-3.077V64.077A3.08,3.08,0,0,0,17.928,61Zm1.846,12.923a1.848,1.848,0,0,1-1.846,1.846H3.077a1.848,1.848,0,0,1-1.846-1.846V64.077a1.848,1.848,0,0,1,1.846-1.846H17.928a1.848,1.848,0,0,1,1.846,1.846Z" transform="translate(0 -61)" fill="#fff"/></g></svg>